<svg width="65" height="60" viewBox="0 0 65 60" fill="none" xmlns="http://www.w3.org/2000/svg">
<path d="M13.0001 38.0581L2.5 34.5581L0.5 35.0581V36.5581L10.5001 42.5581L13.0001 54.0581L14.0001 54.5581L15.5001 53.5581L16.0001 42.5581L38.5001 27.5581L45.5001 58.5581L51.0001 55.0581L50.5001 47.5581L53.0001 45.0581V44.0581V43.5581L52.0001 43.0581H51.0001H50.5001V37.0581L51.0001 36.5581L53.0001 35.5581V34.0581L52.5001 33.5581L52.0001 33.0581H51.0001H50.0001V20.0581L59.5001 14.0581L64.0001 9.05811L64.5001 6.55811V5.55811L63.5001 4.55811H61.0001L58.0001 5.55811L55.0001 6.55811L45.0001 14.0581L33.5001 8.55811L34.0001 7.55811V6.55811L32.5001 6.05811H32.0001L30.5001 7.05811L29.5001 7.55811L24.0001 5.55811L24.5001 4.05811V3.05811L24.0001 2.05811H23.0001H22.0001L21.0001 2.55811L20.5001 3.55811L12.5001 0.558105L8.00006 3.55811V4.05811L8.50006 4.55811L34.5001 21.5581L13.0001 38.0581Z" fill="white" stroke="white"/>
</svg>
